<?xml version="1.0" standalone="no"?>
<!DOCTYPE svg PUBLIC "-//W3C//DTD SVG 20010904//EN"
 "http://www.w3.org/TR/2001/REC-SVG-20010904/DTD/svg10.dtd">
<svg version="1.0" xmlns="http://www.w3.org/2000/svg"
 width="700.000000pt" height="700.000000pt" viewBox="0 0 700.000000 700.000000"
 preserveAspectRatio="xMidYMid meet">
<metadata>
Created by potrace 1.11, written by Peter Selinger 2001-2013
</metadata>
<g transform="translate(0.000000,700.000000) scale(0.100000,-0.100000)"
fill="#000000" stroke="none">
<path d="M3340 5724 c-163 -34 -267 -87 -435 -217 -66 -51 -264 -205 -440
-341 -176 -136 -333 -259 -350 -272 -16 -13 -55 -43 -86 -66 -232 -177 -349
-271 -381 -306 -103 -114 -134 -279 -79 -423 38 -100 58 -121 345 -363 27 -22
70 -59 96 -81 25 -22 70 -60 98 -84 l52 -44 -47 -34 c-27 -19 -49 -38 -51 -43
-2 -6 -10 -10 -17 -10 -7 0 -15 -4 -17 -8 -1 -4 -80 -67 -173 -139 -182 -140
-231 -187 -266 -255 -66 -130 -64 -268 7 -398 28 -52 121 -144 249 -246 33
-27 62 -51 65 -54 3 -4 50 -44 105 -90 55 -46 102 -86 105 -89 3 -3 26 -23 52
-44 26 -21 53 -43 60 -50 13 -12 69 -59 203 -172 66 -55 419 -353 474 -400 13
-11 29 -25 35 -31 23 -21 133 -92 181 -117 191 -96 451 -111 659 -38 90 32
233 115 276 161 3 3 88 75 190 160 102 85 187 157 190 160 3 3 46 39 95 80 50
41 92 77 95 80 3 3 32 28 65 55 33 28 71 60 85 72 63 53 390 330 434 367 158
131 207 194 232 303 23 100 14 185 -29 275 -44 91 -73 119 -349 332 -120 92
-218 171 -218 176 0 4 21 25 48 46 26 21 58 49 72 60 52 45 189 161 240 204
163 136 210 198 236 307 22 94 14 186 -24 267 -46 98 -71 123 -331 322 -65 49
-768 593 -826 639 -304 237 -374 282 -505 324 -95 30 -113 33 -240 36 -73 2
-139 -2 -180 -11z m282 -278 c36 -8 95 -29 130 -46 37 -18 210 -144 418 -306
195 -151 396 -306 445 -344 470 -362 529 -410 548 -443 34 -62 16 -125 -50
-181 -21 -17 -56 -47 -78 -67 -22 -19 -96 -82 -165 -139 -69 -58 -131 -110
-138 -117 -7 -7 -34 -29 -60 -50 -26 -21 -49 -41 -52 -44 -3 -4 -48 -42 -100
-85 -52 -44 -106 -89 -120 -101 -223 -190 -534 -451 -580 -484 -131 -95 -334
-123 -497 -69 -95 31 -150 66 -285 183 -53 45 -369 312 -462 391 -28 22 -68
57 -91 76 -23 19 -65 55 -95 80 -55 46 -236 199 -325 275 -27 23 -86 73 -130
110 -44 37 -88 81 -98 99 -22 38 -18 103 9 138 10 13 85 76 167 139 82 63 154
119 160 124 7 6 91 71 187 145 96 74 182 140 190 147 16 14 383 298 523 405
140 109 218 150 305 164 21 3 39 8 41 10 10 9 141 3 203 -10z m-1212 -2129
c14 -12 50 -42 80 -67 30 -25 57 -47 60 -51 3 -3 96 -83 208 -177 268 -227
320 -262 470 -316 90 -32 149 -41 272 -41 115 0 163 7 255 35 134 42 216 93
387 237 63 54 134 114 158 133 24 19 51 42 59 51 9 8 71 61 138 118 80 67 127
100 135 95 14 -9 310 -235 318 -244 3 -3 43 -34 90 -70 100 -76 127 -104 136
-143 15 -68 -8 -107 -111 -192 -27 -22 -53 -45 -59 -50 -6 -6 -49 -43 -96 -82
-137 -115 -673 -567 -720 -607 -166 -143 -346 -290 -390 -319 -91 -59 -168
-80 -295 -81 -210 -1 -264 30 -670 379 -27 23 -84 71 -126 106 -42 35 -129
109 -195 164 -65 55 -125 104 -132 110 -7 5 -23 20 -35 31 -12 12 -80 70 -152
130 -116 96 -184 153 -279 234 -77 66 -96 95 -96 148 0 64 9 73 409 380 62 48
118 92 125 99 16 18 28 16 56 -10z"/>
</g>
</svg>
